<svg data-v-423bf9ae="" xmlns="http://www.w3.org/2000/svg" viewBox="0 0 291.71789929242806 60" class="font"><!----><!----><!----><g data-v-423bf9ae="" id="09a7b56a-8fc3-4401-abc3-c112e1dfa585" fill="black" transform="matrix(4.501124858856201,0,0,4.501124858856201,-5.041252613067627,-21.56038475036621)"><path d="M3.21 5.12C2.07 5.12 1.47 5.28 1.12 5.45C1.27 5.91 1.32 6.71 1.32 7.01L1.32 14.49C1.32 14.92 1.62 15.19 2.06 15.19C2.42 15.19 2.69 15.01 2.80 14.90C2.63 14.48 2.60 13.72 2.60 13.40L2.60 11.17L2.97 11.17C5.80 11.17 7.27 10.09 7.27 7.99C7.27 6.01 5.92 5.12 3.21 5.12ZM2.98 10.64L2.60 10.64L2.60 5.70C2.73 5.67 2.93 5.67 3.18 5.67C5.11 5.67 5.87 6.52 5.87 8.08C5.87 9.72 5.03 10.64 2.98 10.64ZM10.37 15.16C10.93 15.16 11.42 14.85 11.42 14.39C11.42 14.25 11.38 14.08 11.26 13.92C11.17 14.10 10.95 14.18 10.77 14.18C10.42 14.18 10.23 13.93 10.23 13.44L10.25 7.81C10.25 6.43 10.26 5.67 10.44 5.08C10.33 4.97 10.08 4.79 9.72 4.79C9.28 4.79 8.97 5.04 8.97 5.49L8.97 13.52C8.97 14.55 9.49 15.16 10.37 15.16ZM19.19 13.92C19.08 14.10 18.89 14.18 18.75 14.18C18.42 14.18 18.26 13.94 18.26 13.44L18.26 10.72C18.26 8.64 17.36 7.70 15.40 7.70C13.72 7.70 12.66 8.29 12.66 9.39C12.66 10.04 13.08 10.64 13.78 10.64C14.04 10.64 14.34 10.56 14.52 10.35C14.08 10.18 13.93 9.72 13.93 9.35C13.93 8.50 14.63 8.23 15.29 8.23C16.51 8.23 16.95 9.04 16.95 10.65L16.95 11.00C16.28 10.98 15.46 11.05 14.67 11.26C13.37 11.62 12.33 12.36 12.33 13.55C12.33 14.55 13.01 15.18 14.10 15.18C15.39 15.18 16.45 14.34 17.02 13.09L17.02 13.31C17.02 14.62 17.47 15.16 18.31 15.16C18.90 15.16 19.35 14.83 19.35 14.39C19.35 14.25 19.31 14.08 19.19 13.92ZM14.70 14.31C13.99 14.34 13.72 13.82 13.72 13.27C13.72 12.57 14.18 12.07 14.94 11.77C15.48 11.54 16.35 11.45 17.00 11.48C16.97 12.96 15.72 14.27 14.70 14.31ZM26.42 13.34L26.42 10.60C26.42 8.69 25.70 7.70 24.16 7.70C23.02 7.70 22.18 8.32 21.78 9.39L21.78 9.23C21.78 8.22 21.36 7.71 20.62 7.71C20.06 7.71 19.73 8.01 19.73 8.43C19.73 8.60 19.78 8.74 19.89 8.89C19.98 8.72 20.16 8.69 20.26 8.69C20.52 8.69 20.64 8.89 20.65 9.41L20.65 14.43C20.65 14.91 20.96 15.19 21.39 15.19C21.74 15.19 22.01 15.02 22.12 14.91C21.91 14.34 21.91 13.83 21.91 11.66C21.91 9.32 22.89 8.41 23.79 8.41C24.82 8.41 25.14 9.24 25.16 10.77L25.16 14.49C25.16 14.92 25.48 15.19 25.90 15.19C26.22 15.19 26.46 15.05 26.63 14.90C26.46 14.45 26.43 13.82 26.42 13.34ZM30.49 7.90L30.04 7.90C30.06 7.20 30.10 6.72 30.21 6.31C30.10 6.22 29.86 6.03 29.50 6.03C29.06 6.03 28.76 6.29 28.76 6.72L28.76 7.90L28.08 7.90C27.89 7.90 27.73 8.01 27.72 8.23L27.71 8.58C27.89 8.55 28.36 8.54 28.55 8.54L28.76 8.54L28.76 13.54C28.76 14.56 29.30 15.18 30.23 15.18C30.97 15.18 31.49 14.87 31.49 14.41C31.49 14.27 31.44 14.10 31.32 13.93C31.23 14.11 30.93 14.20 30.69 14.20C30.24 14.20 30.02 13.93 30.02 13.44L30.03 9.04L30.03 8.54L31.42 8.54C31.60 8.54 31.75 8.41 31.77 8.19L31.78 7.85C31.64 7.87 30.63 7.90 30.49 7.90ZM36.09 15.22C38.51 15.22 39.44 13.94 39.44 12.63C39.44 11.05 38.19 10.22 36.71 9.44C35.28 8.64 34.48 8.12 34.48 7.04C34.48 5.99 35.38 5.67 36.18 5.67C37.23 5.67 37.93 6.13 38.02 6.89C38.07 7.08 38.09 7.31 38.05 7.52C38.21 7.56 38.37 7.56 38.50 7.53C38.99 7.49 39.14 7.20 39.14 6.83C39.14 5.74 37.98 5.12 36.32 5.12C34.68 5.12 33.28 5.80 33.28 7.46C33.28 8.99 34.36 9.67 36.01 10.60C37.42 11.40 38.18 11.93 38.18 13.01C38.18 14.11 37.37 14.66 36.25 14.66C34.89 14.66 34.10 13.93 34.03 12.94C34.01 12.70 34.02 12.50 34.06 12.32C33.19 12.19 32.93 12.60 32.93 13.16C32.93 14.28 33.89 15.22 36.09 15.22ZM43.02 15.19C43.33 15.19 43.64 15.12 43.95 14.98L45.46 9.09L46.94 14.73C47.01 15.06 47.35 15.19 47.67 15.19C47.95 15.19 48.23 15.12 48.52 14.98L50.53 9.06C50.62 8.81 50.67 8.54 50.67 8.36C50.68 7.97 50.44 7.78 49.95 7.78C49.66 7.78 49.49 7.84 49.31 7.91C49.36 7.99 49.39 8.11 49.39 8.26C49.39 8.43 49.35 8.60 49.31 8.75L47.84 14.29L46.27 8.19C46.17 7.85 45.81 7.76 45.46 7.76C45.21 7.77 44.86 7.80 44.60 7.91C44.66 7.99 44.69 8.11 44.69 8.26C44.69 8.43 44.66 8.61 44.62 8.75L43.23 14.29L41.59 8.30C41.52 7.95 41.23 7.78 40.84 7.78C40.46 7.78 40.24 7.94 40.11 8.09C40.26 8.26 40.39 8.61 40.45 8.78L42.31 14.73C42.42 15.06 42.70 15.19 43.02 15.19ZM58.38 13.92C58.27 14.10 58.07 14.18 57.93 14.18C57.61 14.18 57.44 13.94 57.44 13.44L57.44 10.72C57.44 8.64 56.55 7.70 54.59 7.70C52.91 7.70 51.84 8.29 51.84 9.39C51.84 10.04 52.26 10.64 52.96 10.64C53.23 10.64 53.52 10.56 53.70 10.35C53.27 10.18 53.12 9.72 53.12 9.35C53.12 8.50 53.82 8.23 54.47 8.23C55.69 8.23 56.14 9.04 56.14 10.65L56.14 11.00C55.47 10.98 54.64 11.05 53.86 11.26C52.56 11.62 51.52 12.36 51.52 13.55C51.52 14.55 52.19 15.18 53.28 15.18C54.57 15.18 55.64 14.34 56.21 13.09L56.21 13.31C56.21 14.62 56.66 15.16 57.50 15.16C58.09 15.16 58.53 14.83 58.53 14.39C58.53 14.25 58.49 14.08 58.38 13.92ZM53.89 14.31C53.17 14.34 52.91 13.82 52.91 13.27C52.91 12.57 53.37 12.07 54.12 11.77C54.67 11.54 55.54 11.45 56.18 11.48C56.15 12.96 54.91 14.27 53.89 14.31ZM63.49 7.70C62.26 7.70 61.46 8.44 61.03 9.62C61.01 8.46 60.65 7.76 59.81 7.76C59.28 7.76 58.91 8.04 58.91 8.46C58.91 8.60 58.97 8.76 59.08 8.93C59.16 8.76 59.35 8.74 59.44 8.74C59.72 8.74 59.84 8.93 59.84 9.45L59.82 17.43C59.82 17.86 60.14 18.12 60.56 18.12C60.93 18.12 61.18 17.95 61.29 17.84C61.12 17.23 61.08 16.24 61.08 15.64L61.08 14.15C61.36 14.83 62.03 15.20 62.96 15.20C64.82 15.20 65.93 13.73 65.93 11.14C65.93 9.56 65.46 7.70 63.49 7.70ZM62.66 14.49C61.42 14.49 61.10 13.44 61.10 12.08C61.10 10.19 61.82 8.46 63.14 8.46C64.37 8.46 64.57 9.81 64.57 11.14C64.57 13.34 63.92 14.49 62.66 14.49Z"></path></g><!----><!----></svg>